<?xml version="1.0" encoding="UTF-8"?>
<svg width="16px" height="16px" viewBox="0 0 24 24" version="1.1" xmlns="http://www.w3.org/2000/svg" xmlns:xlink="http://www.w3.org/1999/xlink">
    <title>Icons/Enterprise/Commerce/Account</title>
    <g id="Icons" stroke="none" stroke-width="1" fill="none" fill-rule="evenodd">
        <g id="Icons/Enterprise/Commerce/Account" fill="white">
            <path d="M6,10.5 L14.25,10.5 L14.25,12 L6,12 L6,10.5 Z M6,14.25 L15.75,14.25 L15.75,15.75 L6,15.75 L6,14.25 Z M21,3 L3,3 C2.17157288,3 1.5,3.67157288 1.5,4.5 L1.5,19.5 C1.5,20.3284271 2.17157288,21 3,21 L21,21 C21.8284271,21 22.5,20.3284271 22.5,19.5 L22.5,4.5 C22.5,3.67157288 21.8284271,3 21,3 Z M21,4.5 L21,6 L3,6 L3,4.5 L21,4.5 Z M3,19.5 L3,7.5 L21,7.5 L21,19.5 L3,19.5 Z" id="Fill"></path>
        </g>
    </g>
</svg>