<?xml version="1.0" encoding="UTF-8"?>
<svg width="55px" height="55px" viewBox="0 0 55 55" version="1.1" xmlns="http://www.w3.org/2000/svg" xmlns:xlink="http://www.w3.org/1999/xlink">
    <title>BusinessAccounts</title>
    <g id="Pre-Approval-UI-Screens" stroke="none" stroke-width="1" fill="none" fill-rule="evenodd">
        <g id="New-Product-Selection-" transform="translate(-229.000000, -303.000000)">
            <g id="Component/Forms/ProductsIcon" transform="translate(229.000000, 303.000000)">
                <circle id="Oval" fill="#0062FF" cx="27.5" cy="27.5" r="27.5"></circle>
                <g id="Icons/Enterprise/Commerce/Account" transform="translate(16.394231, 17.980769)" fill="#FFFFFF">
                    <path d="M4.75961538,7.93269231 L13.4855769,7.93269231 L13.4855769,9.51923077 L4.75961538,9.51923077 L4.75961538,7.93269231 Z M4.75961538,11.8990385 L15.0721154,11.8990385 L15.0721154,13.4855769 L4.75961538,13.4855769 L4.75961538,11.8990385 Z M20.625,0 L1.58653846,0 C0.710317464,0 -3.55271368e-15,0.710317464 -3.55271368e-15,1.58653846 L-3.55271368e-15,17.4519231 C-3.55271368e-15,18.3281441 0.710317464,19.0384615 1.58653846,19.0384615 L20.625,19.0384615 C21.501221,19.0384615 22.2115385,18.3281441 22.2115385,17.4519231 L22.2115385,1.58653846 C22.2115385,0.710317464 21.501221,0 20.625,0 Z M20.625,1.58653846 L20.625,3.17307692 L1.58653846,3.17307692 L1.58653846,1.58653846 L20.625,1.58653846 Z M1.58653846,17.4519231 L1.58653846,4.75961538 L20.625,4.75961538 L20.625,17.4519231 L1.58653846,17.4519231 Z" id="Fill"></path>
                </g>
            </g>
        </g>
    </g>
</svg>