<?xml version="1.0" encoding="UTF-8"?>
<svg width="24px" height="24px" viewBox="0 0 24 24" version="1.1" xmlns="http://www.w3.org/2000/svg" xmlns:xlink="http://www.w3.org/1999/xlink">
    <title>Icons/Planning/Time/Calendar</title>
    <g id="Icons" stroke="none" stroke-width="1" fill="none" fill-rule="evenodd">
        <g id="Icons/Planning/Time/Calendar" fill="#522892">
            <path d="M19.5,3 L16.5,3 L16.5,1.5 L15,1.5 L15,3 L9,3 L9,1.5 L7.5,1.5 L7.5,3 L4.5,3 C3.675,3 3,3.675 3,4.5 L3,19.5 C3,20.325 3.675,21 4.5,21 L19.5,21 C20.325,21 21,20.325 21,19.5 L21,4.5 C21,3.675 20.325,3 19.5,3 Z M19.5,19.5 L4.5,19.5 L4.5,9 L19.5,9 L19.5,19.5 Z M19.5,7.5 L4.5,7.5 L4.5,4.5 L7.5,4.5 L7.5,6 L9,6 L9,4.5 L15,4.5 L15,6 L16.5,6 L16.5,4.5 L19.5,4.5 L19.5,7.5 Z" id="Fill"></path>
        </g>
    </g>
</svg>