<?xml version="1.0" encoding="UTF-8"?>
<svg width="16px" height="16px" viewBox="0 0 24 24" version="1.1" xmlns="http://www.w3.org/2000/svg" xmlns:xlink="http://www.w3.org/1999/xlink">
    <title>Icons/Actions/Operations/Chat</title>
    <g id="Icons" stroke="none" stroke-width="1" fill="none" fill-rule="evenodd">
        <g id="Icons/Actions/Operations/Chat" fill="white">
            <path d="M13.305,22.5 L12,21.75 L15,16.5 L19.5,16.5 C20.3284271,16.5 21,15.8284271 21,15 L21,6 C21,5.17157288 20.3284271,4.5 19.5,4.5 L4.5,4.5 C3.67157288,4.5 3,5.17157288 3,6 L3,15 C3,15.8284271 3.67157288,16.5 4.5,16.5 L11.25,16.5 L11.25,18 L4.5,18 C2.84314575,18 1.5,16.6568542 1.5,15 L1.5,6 C1.5,4.34314575 2.84314575,3 4.5,3 L19.5,3 C21.1568542,3 22.5,4.34314575 22.5,6 L22.5,15 C22.5,16.6568542 21.1568542,18 19.5,18 L15.87,18 L13.305,22.5 Z M6,7.5 L18,7.5 L18,9 L6,9 L6,7.5 Z M6,12 L13.5,12 L13.5,13.5 L6,13.5 L6,12 Z" id="Fill"></path>
        </g>
    </g>
</svg>