<?xml version="1.0" encoding="UTF-8"?>
<svg width="16px" height="16px" viewBox="0 0 24 24" version="1.1" xmlns="http://www.w3.org/2000/svg" xmlns:xlink="http://www.w3.org/1999/xlink">
    <title>Icons/Enterprise/Commerce/Currency</title>
    <g id="Icons" stroke="none" stroke-width="1" fill="none" fill-rule="evenodd">
        <g id="Icons/Enterprise/Commerce/Currency" fill="white">
            <path d="M15.75,9 L15.75,7.5 L12.75,7.5 L12.75,5.25 L11.25,5.25 L11.25,7.5 L9.75,7.5 C8.92191561,7.50082684 8.25082684,8.17191561 8.25,9 L8.25,11.25 C8.25082684,12.0780844 8.92191561,12.7491732 9.75,12.75 L14.25,12.75 L14.25,15 L8.25,15 L8.25,16.5 L11.25,16.5 L11.25,18.75 L12.75,18.75 L12.75,16.5 L14.25,16.5 C15.0780331,16.4990494 15.7490494,15.8280331 15.75,15 L15.75,12.75 C15.7491732,11.9219156 15.0780844,11.2508268 14.25,11.25 L9.75,11.25 L9.75,9 L15.75,9 Z M12,3 C16.9705627,3 21,7.02943725 21,12 C21,16.9705627 16.9705627,21 12,21 C7.02943725,21 3,16.9705627 3,12 C3.01453992,7.03547236 7.03547236,3.01453992 12,3 M12,1.5 C6.20101013,1.5 1.5,6.20101013 1.5,12 C1.5,17.7989899 6.20101013,22.5 12,22.5 C17.7989899,22.5 22.5,17.7989899 22.5,12 C22.4830299,6.20805392 17.7919461,1.51697007 12,1.5 Z" id="Fill"></path>
        </g>
    </g>
</svg>