<?xml version="1.0" encoding="UTF-8"?>
<svg width="18px" height="18px" viewBox="0 0 24 24" version="1.1" xmlns="http://www.w3.org/2000/svg" xmlns:xlink="http://www.w3.org/1999/xlink">
    <title>Icons/Finance/File/Document</title>
    <g id="Icons" stroke="none" stroke-width="1" fill="none" fill-rule="evenodd">
        <g id="Icons/Finance/File/Document" fill="white">
            <path d="M19.275,6.975 L14.025,1.725 C13.875,1.575 13.725,1.5 13.5,1.5 L6,1.5 C5.175,1.5 4.5,2.175 4.5,3 L4.5,21 C4.5,21.825 5.175,22.5 6,22.5 L18,22.5 C18.825,22.5 19.5,21.825 19.5,21 L19.5,7.5 C19.5,7.275 19.425,7.125 19.275,6.975 Z M13.5,3.3 L17.7,7.5 L13.5,7.5 L13.5,3.3 Z M18,21 L6,21 L6,3 L12,3 L12,7.5 C12,8.325 12.675,9 13.5,9 L18,9 L18,21 Z M7.5,16.5 L16.5,16.5 L16.5,18 L7.5,18 L7.5,16.5 Z M7.5,12 L16.5,12 L16.5,13.5 L7.5,13.5 L7.5,12 Z" id="Fill"></path>
        </g>
    </g>
</svg>