<?xml version="1.0" encoding="UTF-8"?>
<svg width="24px" height="24px" viewBox="0 0 24 24" version="1.1" xmlns="http://www.w3.org/2000/svg" xmlns:xlink="http://www.w3.org/1999/xlink">
    <title>Icons/Finance/Status/Help</title>
    <g id="Icons" stroke="none" stroke-width="1" fill="none" fill-rule="evenodd">
        <g id="Icons/Finance/Status/Help" fill="#522892">
            <path d="M12,1.5 C6.20101013,1.5 1.5,6.20101013 1.5,12 C1.5,17.7989899 6.20101013,22.5 12,22.5 C17.7989899,22.5 22.5,17.7989899 22.5,12 C22.5,9.21522686 21.3937532,6.54451077 19.4246212,4.5753788 C17.4554892,2.60624682 14.7847731,1.5 12,1.5 Z M12,21 C7.02943725,21 3,16.9705627 3,12 C3,7.02943725 7.02943725,3 12,3 C16.9705627,3 21,7.02943725 21,12 C21,14.3869484 20.0517884,16.6761336 18.363961,18.363961 C16.6761336,20.0517884 14.3869484,21 12,21 Z M12,18.75 C12.6213203,18.75 13.125,18.2463203 13.125,17.625 C13.125,17.0036797 12.6213203,16.5 12,16.5 C11.3786797,16.5 10.875,17.0036797 10.875,17.625 C10.875,18.2463203 11.3786797,18.75 12,18.75 Z M12.7499916,5.99999162 L11.625,5.99999162 C10.7292836,5.99800285 9.86967827,6.35294082 9.23630954,6.98630954 C8.60294082,7.61967827 8.24800285,8.47928359 8.24999162,9.375 L8.24999162,9.75 L9.74999162,9.75 L9.74999162,9.375 C9.74999162,8.33946609 10.5894661,7.49999162 11.625,7.49999162 L12.7499916,7.49999162 C13.7855339,7.49999162 14.625,8.33946609 14.625,9.375 C14.625,10.4105339 13.7855339,11.25 12.7499916,11.25 L11.2499916,11.25 L11.2499916,14.625 L12.7499916,14.625 L12.7499916,12.75 C14.613961,12.75 16.125,11.238961 16.125,9.375 C16.125,7.51103897 14.613961,5.99999162 12.7499916,5.99999162 Z" id="Fill"></path>
        </g>
    </g>
</svg>
