<?xml version="1.0" encoding="UTF-8"?>
<svg width="24px" height="24px" viewBox="0 0 24 24" version="1.1" xmlns="http://www.w3.org/2000/svg" xmlns:xlink="http://www.w3.org/1999/xlink">
    <title>Icons/Actions/Navigation/Home</title>
    <g id="Icons" stroke="none" stroke-width="1" fill="none" fill-rule="evenodd">
        <g id="Icons/Actions/Navigation/Home" fill="white">
            <path d="M12.459225,1.66035 C12.1853138,1.44660635 11.8011112,1.44660635 11.5272,1.66035 L0.75,10.06455 L1.682025,11.243325 L3,10.215675 L3,19.5 C3.00169164,20.3277254 3.67227459,20.9983084 4.5,21 L19.5,21 C20.3277937,20.9984728 20.9984728,20.3277937 21,19.5 L21,10.2225 L22.317975,11.25 L23.25,10.07115 L12.459225,1.66035 Z M13.5,19.5 L10.5,19.5 L10.5,13.5 L13.5,13.5 L13.5,19.5 Z M15,19.5 L15,13.5 C14.9990494,12.6719669 14.3280331,12.0009506 13.5,12 L10.5,12 C9.67191561,12.0008268 9.00082684,12.6719156 9,13.5 L9,19.5 L4.5,19.5 L4.5,9.046125 L12,3.203625 L19.5,9.054 L19.5,19.5 L15,19.5 Z" id="Fill"></path>
        </g>
    </g>
</svg>