<?xml version="1.0" encoding="UTF-8"?>
<svg width="55px" height="55px" viewBox="0 0 55 55" version="1.1" xmlns="http://www.w3.org/2000/svg" xmlns:xlink="http://www.w3.org/1999/xlink">
    <title>Loans</title>
    <g id="Pre-Approval-UI-Screens" stroke="none" stroke-width="1" fill="none" fill-rule="evenodd">
        <g id="New-Product-Selection-" transform="translate(-826.000000, -303.000000)">
            <g id="Loans" transform="translate(826.000000, 303.000000)">
                <circle id="Oval" fill="#0062FF" cx="27.5" cy="27.5" r="27.5"></circle>
                <g id="Icons/Enterprise/Commerce/Account" transform="translate(16.394231, 16.394231)" fill="#FFFFFF">
                    <path d="M15.0721154,7.93269231 L15.0721154,6.34615385 L11.8990385,6.34615385 L11.8990385,3.96634615 L10.3125,3.96634615 L10.3125,6.34615385 L8.72596154,6.34615385 C7.85010305,6.34702839 7.14029762,7.05683382 7.13942308,7.93269231 L7.13942308,10.3125 C7.14029762,11.1883585 7.85010305,11.8981639 8.72596154,11.8990385 L13.4855769,11.8990385 L13.4855769,14.2788462 L7.13942308,14.2788462 L7.13942308,15.8653846 L10.3125,15.8653846 L10.3125,18.2451923 L11.8990385,18.2451923 L11.8990385,15.8653846 L13.4855769,15.8653846 C14.3613811,15.8643792 15.0711099,15.1546503 15.0721154,14.2788462 L15.0721154,11.8990385 C15.0712408,11.02318 14.3614354,10.3133745 13.4855769,10.3125 L8.72596154,10.3125 L8.72596154,7.93269231 L15.0721154,7.93269231 Z M11.1057692,1.58653846 C16.3630952,1.58653846 20.625,5.84844325 20.625,11.1057692 C20.625,16.3630952 16.3630952,20.625 11.1057692,20.625 C5.84844325,20.625 1.58653846,16.3630952 1.58653846,11.1057692 C1.60191723,5.85482653 5.85482653,1.60191723 11.1057692,1.58653846 M11.1057692,-3.55271368e-15 C4.97222225,-3.55271368e-15 -3.55271368e-15,4.97222225 -3.55271368e-15,11.1057692 C-3.55271368e-15,17.2393162 4.97222225,22.2115385 11.1057692,22.2115385 C17.2393162,22.2115385 22.2115385,17.2393162 22.2115385,11.1057692 C22.1935894,4.97967242 17.231866,0.0179491112 11.1057692,-3.55271368e-15 Z" id="Fill"></path>
                </g>
            </g>
        </g>
    </g>
</svg>