<?xml version="1.0" encoding="UTF-8"?>
<svg width="18px" height="16px" viewBox="0 0 24 24" version="1.1" xmlns="http://www.w3.org/2000/svg" xmlns:xlink="http://www.w3.org/1999/xlink">
    <title>Icons/Actions/Operations/Logout</title>
    <g id="Icons" stroke="none" stroke-width="1" fill="none" fill-rule="evenodd">
        <g id="Icons/Actions/Operations/Logout" fill="white">
            <path d="M4.5,22.5 L13.5,22.5 C14.3280331,22.4990494 14.9990494,21.8280331 15,21 L15,18.75 L13.5,18.75 L13.5,21 L4.5,21 L4.5,3 L13.5,3 L13.5,5.25 L15,5.25 L15,3 C14.9990494,2.17196695 14.3280331,1.5009506 13.5,1.5 L4.5,1.5 C3.67196695,1.5009506 3.0009506,2.17196695 3,3 L3,21 C3.0009506,21.8280331 3.67196695,22.4990494 4.5,22.5 Z M15.4395,15.4395 L18.129,12.75 L7.5,12.75 L7.5,11.25 L18.129,11.25 L15.4395,8.5605 L16.5,7.5 L21,12 L16.5,16.5 L15.4395,15.4395 L15.4395,15.4395 Z" id="Fill"></path>
        </g>
    </g>
</svg>