<?xml version="1.0" encoding="UTF-8"?>
<svg width="16px" height="16px" viewBox="0 0 24 24" version="1.1" xmlns="http://www.w3.org/2000/svg" xmlns:xlink="http://www.w3.org/1999/xlink">
    <title>Icons/Actions/Toggle/Notification</title>
    <g id="Icons" stroke="none" stroke-width="1" fill="none" fill-rule="evenodd">
        <g id="Icons/Actions/Toggle/Notification" fill="white">
            <path d="M12,1 C11.252375,1 10.6405968,1.56587012 10.5712098,2.29318052 L10.5646552,2.43134436 L10.5646552,3.46355324 L10.326291,3.5200346 C7.32042561,4.23228647 5.4316559,6.85679808 5.33175591,10.2644445 L5.32758621,10.5502037 L5.32758621,16.4768801 L3,18.7963551 L3,19.5200935 L21,19.5200935 L21,18.7973832 L18.6724138,16.4768801 L18.6724138,10.5502037 C18.6724138,7.10099115 16.8679708,4.39978078 13.9220665,3.58370864 L13.6739464,3.52009075 L13.4353448,3.46375014 L13.4353448,2.43134436 C13.4353448,1.63881431 12.7943516,1 12,1 Z M12,5.02252576 C14.8913613,5.02252576 16.8624149,7.25952235 16.9615936,10.3078839 L16.9655172,10.5502037 L16.9655172,17.8176372 L7.03448276,17.8176372 L7.03448276,10.5502037 C7.03448276,7.37880817 9.03255022,5.02252576 12,5.02252576 Z M12,23 C13.1,23 14,22.1 14,21 L10,21 C10,22.1 10.9,23 12,23 Z" id="Combined-Shape"></path>
        </g>
    </g>
</svg>