<?xml version="1.0" encoding="UTF-8"?>
<svg width="24px" height="24px" viewBox="0 0 24 24" version="1.1" xmlns="http://www.w3.org/2000/svg" xmlns:xlink="http://www.w3.org/1999/xlink">
    <title>Icons/Actions/Toggle/Phone Voice</title>
    <g id="Icons" stroke="none" stroke-width="1" fill="none" fill-rule="evenodd">
        <g id="Icons/Actions/Toggle/Phone-Voice" fill="#522892">
            <path d="M18,9.75 L16.5,9.75 C16.498636,8.50792475 15.4920752,7.50136403 14.25,7.5 L14.25,6 C16.3200912,6.00235588 17.9976441,7.67990881 18,9.75 L18,9.75 Z M21,9.75 L19.5,9.75 C19.496776,6.85184153 17.1481585,4.50322399 14.25,4.5 L14.25,3 C17.9762086,3.00413335 20.9958667,6.02379137 21,9.75 L21,9.75 Z M19.5,21.7499993 L19.3725,21.7499993 C4.635,20.9025 2.5425,8.4675 2.25,4.6725 C2.20424415,4.07751198 2.39672349,3.48871709 2.78509375,3.03564659 C3.17346401,2.58257608 3.72591108,2.30234412 4.3209,2.2566 C4.3803,2.2522 4.44,2.24999929 4.5,2.24999929 L8.4525,2.24999929 C9.06720577,2.24940493 9.62005905,2.62391844 9.8475,3.195 L10.9875,6 C11.2118723,6.55735705 11.0820179,7.1948243 10.6575,7.62 L9.06,9.2325 C9.5690959,12.1382756 11.840576,14.415749 14.745,14.9325 L16.3725,13.32 C16.804106,12.9001286 17.4449547,12.7790466 18,13.0125 L20.8275,14.145 C21.3897482,14.3795272 21.7543089,14.930814 21.7500378,15.54 L21.7500378,19.5 C21.7500378,20.7426407 20.7426407,21.7499993 19.5,21.7499993 Z M4.5,3.74999614 C4.30108732,3.74936246 4.11006844,3.82776931 3.96896585,3.96797173 C3.82786326,4.10817415 3.7482355,4.29868732 3.7476,4.4976 C3.7476,4.51845 3.7484,4.53925 3.75,4.56 C4.095,9 6.3075,19.5 19.455,20.2499961 C19.6535544,20.2619351 19.8487177,20.1945057 19.997556,20.0625457 C20.1463943,19.9305856 20.2367156,19.7449044 20.24865,19.54635 C20.24955,19.5309 20.25,19.51545 20.25,19.5 L20.25,15.54 L17.4225,14.4075 L15.27,16.545 L14.91,16.5 C8.385,15.6825 7.5,9.1575 7.5,9.09 L7.455,8.73 L9.585,6.5775 L8.46,3.74999614 L4.5,3.74999614 Z" id="Fill"></path>
        </g>
    </g>
</svg>